<?xml version="1.0" encoding="utf-8"?>
<!-- Generator: Adobe Illustrator 18.1.1, SVG Export Plug-In . SVG Version: 6.00 Build 0)  -->
<svg version="1.1" id="Layer_1" xmlns="http://www.w3.org/2000/svg" xmlns:xlink="http://www.w3.org/1999/xlink" x="0px" y="0px"
	 viewBox="0 0 100 100" enable-background="new 0 0 100 100" xml:space="preserve">
<g>
	<g>
		<path d="M82.6,29.6H28.9c-2.2,0-4-1.8-4-4s1.8-4,4-4h53.6c2.2,0,4,1.8,4,4S84.8,29.6,82.6,29.6z"/>
	</g>
	<g>
		<path d="M82.6,54.2H9.1c-2.2,0-4-1.8-4-4s1.8-4,4-4h73.4c2.2,0,4,1.8,4,4S84.8,54.2,82.6,54.2z"/>
	</g>
	<g>
		<path d="M82.6,78.6h-37c-2.2,0-4-1.8-4-4s1.8-4,4-4h37c2.2,0,4,1.8,4,4S84.8,78.6,82.6,78.6z"/>
	</g>
</g>
</svg>
